<mxfile host="Electron" modified="2023-07-20T22:07:38.874Z" agent="Mozilla/5.0 (Windows NT 10.0; Win64; x64) AppleWebKit/537.36 (KHTML, like Gecko) draw.io/21.2.8 Chrome/112.0.5615.165 Electron/24.2.0 Safari/537.36" etag="5gT1N1r7jO3nqMCUA-L8" version="21.2.8" type="device">
  <diagram id="_XbPdZ637tmIMkNEpG8g" name="Page-1">
    <mxGraphModel dx="1037" dy="607" grid="1" gridSize="10" guides="1" tooltips="1" connect="1" arrows="1" fold="1" page="1" pageScale="1" pageWidth="850" pageHeight="1100" math="0" shadow="0">
      <root>
        <mxCell id="0" />
        <mxCell id="1" parent="0" />
        <mxCell id="tsi3xn3XVuMqrHjlHtd9-4" value="&lt;b&gt;&lt;font color=&quot;#888888&quot;&gt;AWS Cloud&lt;/font&gt;&lt;/b&gt;" style="sketch=1;outlineConnect=0;html=1;whiteSpace=wrap;fontSize=12;fontStyle=0;shape=mxgraph.aws4.group;grIcon=mxgraph.aws4.group_aws_cloud;strokeColor=#888888;fillColor=none;verticalAlign=top;align=left;spacingLeft=30;fontColor=#333333;dashed=0;" parent="1" vertex="1">
          <mxGeometry x="338.33" y="130" width="461.67" height="260" as="geometry" />
        </mxCell>
        <mxCell id="tsi3xn3XVuMqrHjlHtd9-2" value="Invokes AWS API Call" style="edgeStyle=orthogonalEdgeStyle;rounded=0;orthogonalLoop=1;jettySize=auto;html=1;entryX=0;entryY=0.5;entryDx=0;entryDy=0;sketch=1;strokeColor=#888888;entryPerimeter=0;fontColor=#888888;labelBackgroundColor=none;fontSize=12;" parent="1" source="tsi3xn3XVuMqrHjlHtd9-1" target="ngXMmz6KetWJr5_zTEk7-3" edge="1">
          <mxGeometry x="0.014" y="10" relative="1" as="geometry">
            <mxPoint x="230" y="260" as="targetPoint" />
            <Array as="points">
              <mxPoint x="240" y="260" />
              <mxPoint x="240" y="260" />
            </Array>
            <mxPoint as="offset" />
          </mxGeometry>
        </mxCell>
        <mxCell id="tsi3xn3XVuMqrHjlHtd9-1" value="" style="sketch=1;outlineConnect=0;fontColor=#888888;gradientColor=none;fillColor=#888888;strokeColor=#888888;dashed=0;verticalLabelPosition=bottom;verticalAlign=top;align=center;html=1;fontSize=12;fontStyle=0;aspect=fixed;pointerEvents=1;shape=mxgraph.aws4.user;" parent="1" vertex="1">
          <mxGeometry x="110" y="235" width="50" height="50" as="geometry" />
        </mxCell>
        <mxCell id="tsi3xn3XVuMqrHjlHtd9-11" style="edgeStyle=orthogonalEdgeStyle;rounded=1;orthogonalLoop=1;jettySize=auto;html=1;sketch=1;strokeColor=#888888;" parent="1" source="tsi3xn3XVuMqrHjlHtd9-7" target="tsi3xn3XVuMqrHjlHtd9-1" edge="1">
          <mxGeometry relative="1" as="geometry">
            <Array as="points">
              <mxPoint x="500" y="470" />
              <mxPoint x="135" y="470" />
            </Array>
          </mxGeometry>
        </mxCell>
        <mxCell id="tsi3xn3XVuMqrHjlHtd9-12" value="&lt;div style=&quot;font-size: 12px;&quot;&gt;Deny request if&amp;nbsp; request&lt;/div&gt;&lt;div style=&quot;font-size: 12px;&quot;&gt;explicitly denied or not&lt;/div&gt;&lt;div style=&quot;font-size: 12px;&quot;&gt;explicitly allowed&lt;br style=&quot;font-size: 12px;&quot;&gt;&lt;/div&gt;" style="edgeLabel;html=1;align=center;verticalAlign=middle;resizable=0;points=[];fontColor=#888888;labelBackgroundColor=none;fontSize=12;" parent="tsi3xn3XVuMqrHjlHtd9-11" vertex="1" connectable="0">
          <mxGeometry x="0.0506" y="-2" relative="1" as="geometry">
            <mxPoint x="7" y="22" as="offset" />
          </mxGeometry>
        </mxCell>
        <mxCell id="tsi3xn3XVuMqrHjlHtd9-27" style="edgeStyle=orthogonalEdgeStyle;rounded=1;orthogonalLoop=1;jettySize=auto;html=1;sketch=1;strokeColor=#888888;" parent="1" source="tsi3xn3XVuMqrHjlHtd9-7" target="tsi3xn3XVuMqrHjlHtd9-23" edge="1">
          <mxGeometry relative="1" as="geometry" />
        </mxCell>
        <mxCell id="tsi3xn3XVuMqrHjlHtd9-28" style="edgeStyle=orthogonalEdgeStyle;rounded=1;orthogonalLoop=1;jettySize=auto;html=1;entryX=0;entryY=0.5;entryDx=0;entryDy=0;entryPerimeter=0;sketch=1;strokeColor=#888888;" parent="1" source="tsi3xn3XVuMqrHjlHtd9-7" target="tsi3xn3XVuMqrHjlHtd9-18" edge="1">
          <mxGeometry relative="1" as="geometry">
            <Array as="points">
              <mxPoint x="640" y="260" />
              <mxPoint x="640" y="223" />
            </Array>
          </mxGeometry>
        </mxCell>
        <mxCell id="tsi3xn3XVuMqrHjlHtd9-29" style="edgeStyle=orthogonalEdgeStyle;rounded=1;orthogonalLoop=1;jettySize=auto;html=1;entryX=0;entryY=0.5;entryDx=0;entryDy=0;entryPerimeter=0;sketch=1;strokeColor=#888888;" parent="1" source="tsi3xn3XVuMqrHjlHtd9-7" target="tsi3xn3XVuMqrHjlHtd9-19" edge="1">
          <mxGeometry relative="1" as="geometry">
            <Array as="points">
              <mxPoint x="640" y="260" />
              <mxPoint x="640" y="190" />
            </Array>
          </mxGeometry>
        </mxCell>
        <mxCell id="tsi3xn3XVuMqrHjlHtd9-30" style="edgeStyle=orthogonalEdgeStyle;rounded=1;orthogonalLoop=1;jettySize=auto;html=1;entryX=0;entryY=0.5;entryDx=0;entryDy=0;entryPerimeter=0;sketch=1;strokeColor=#888888;" parent="1" source="tsi3xn3XVuMqrHjlHtd9-7" target="tsi3xn3XVuMqrHjlHtd9-22" edge="1">
          <mxGeometry relative="1" as="geometry">
            <Array as="points">
              <mxPoint x="640" y="260" />
              <mxPoint x="640" y="295" />
            </Array>
          </mxGeometry>
        </mxCell>
        <mxCell id="tsi3xn3XVuMqrHjlHtd9-31" style="edgeStyle=orthogonalEdgeStyle;rounded=1;orthogonalLoop=1;jettySize=auto;html=1;entryX=0;entryY=0.5;entryDx=0;entryDy=0;entryPerimeter=0;sketch=1;strokeColor=#888888;" parent="1" source="tsi3xn3XVuMqrHjlHtd9-7" target="tsi3xn3XVuMqrHjlHtd9-21" edge="1">
          <mxGeometry relative="1" as="geometry">
            <Array as="points">
              <mxPoint x="640" y="260" />
              <mxPoint x="640" y="330" />
            </Array>
          </mxGeometry>
        </mxCell>
        <mxCell id="tsi3xn3XVuMqrHjlHtd9-7" value="&lt;div&gt;&lt;font color=&quot;#888888&quot;&gt;IAM evaluates&lt;/font&gt;&lt;/div&gt;&lt;div&gt;&lt;font color=&quot;#888888&quot;&gt;request against&lt;/font&gt;&lt;/div&gt;&lt;div&gt;&lt;font color=&quot;#888888&quot;&gt;existing policies&lt;/font&gt;&lt;br&gt;&lt;/div&gt;" style="sketch=0;outlineConnect=0;fontColor=#232F3E;gradientColor=none;fillColor=#BF0816;strokeColor=none;dashed=0;verticalLabelPosition=top;verticalAlign=bottom;align=center;html=1;fontSize=12;fontStyle=0;aspect=fixed;pointerEvents=1;shape=mxgraph.aws4.permissions;labelPosition=center;" parent="1" vertex="1">
          <mxGeometry x="486.48" y="243" width="27.03" height="34" as="geometry" />
        </mxCell>
        <mxCell id="tsi3xn3XVuMqrHjlHtd9-18" value="" style="sketch=0;points=[[0,0,0],[0.25,0,0],[0.5,0,0],[0.75,0,0],[1,0,0],[0,1,0],[0.25,1,0],[0.5,1,0],[0.75,1,0],[1,1,0],[0,0.25,0],[0,0.5,0],[0,0.75,0],[1,0.25,0],[1,0.5,0],[1,0.75,0]];outlineConnect=0;fontColor=#232F3E;gradientColor=#F78E04;gradientDirection=north;fillColor=#D05C17;strokeColor=#ffffff;dashed=0;verticalLabelPosition=bottom;verticalAlign=top;align=center;html=1;fontSize=12;fontStyle=0;aspect=fixed;shape=mxgraph.aws4.resourceIcon;resIcon=mxgraph.aws4.ec2;" parent="1" vertex="1">
          <mxGeometry x="730" y="208" width="30" height="30" as="geometry" />
        </mxCell>
        <mxCell id="tsi3xn3XVuMqrHjlHtd9-19" value="" style="sketch=0;points=[[0,0,0],[0.25,0,0],[0.5,0,0],[0.75,0,0],[1,0,0],[0,1,0],[0.25,1,0],[0.5,1,0],[0.75,1,0],[1,1,0],[0,0.25,0],[0,0.5,0],[0,0.75,0],[1,0.25,0],[1,0.5,0],[1,0.75,0]];outlineConnect=0;fontColor=#232F3E;gradientColor=#60A337;gradientDirection=north;fillColor=#277116;strokeColor=#ffffff;dashed=0;verticalLabelPosition=bottom;verticalAlign=top;align=center;html=1;fontSize=12;fontStyle=0;aspect=fixed;shape=mxgraph.aws4.resourceIcon;resIcon=mxgraph.aws4.s3;" parent="1" vertex="1">
          <mxGeometry x="730" y="175" width="30" height="30" as="geometry" />
        </mxCell>
        <mxCell id="tsi3xn3XVuMqrHjlHtd9-21" value="&lt;div&gt;&lt;font color=&quot;#888888&quot;&gt;Aws Cloud&lt;/font&gt;&lt;/div&gt;&lt;div&gt;&lt;font color=&quot;#888888&quot;&gt;Resources&lt;/font&gt;&lt;/div&gt;" style="sketch=0;points=[[0,0,0],[0.25,0,0],[0.5,0,0],[0.75,0,0],[1,0,0],[0,1,0],[0.25,1,0],[0.5,1,0],[0.75,1,0],[1,1,0],[0,0.25,0],[0,0.5,0],[0,0.75,0],[1,0.25,0],[1,0.5,0],[1,0.75,0]];outlineConnect=0;fontColor=#232F3E;gradientColor=#F78E04;gradientDirection=north;fillColor=#D05C17;strokeColor=#ffffff;dashed=0;verticalLabelPosition=bottom;verticalAlign=top;align=center;html=1;fontSize=12;fontStyle=0;aspect=fixed;shape=mxgraph.aws4.resourceIcon;resIcon=mxgraph.aws4.lambda;" parent="1" vertex="1">
          <mxGeometry x="730" y="315" width="30" height="30" as="geometry" />
        </mxCell>
        <mxCell id="tsi3xn3XVuMqrHjlHtd9-22" value="" style="sketch=0;points=[[0,0,0],[0.25,0,0],[0.5,0,0],[0.75,0,0],[1,0,0],[0,1,0],[0.25,1,0],[0.5,1,0],[0.75,1,0],[1,1,0],[0,0.25,0],[0,0.5,0],[0,0.75,0],[1,0.25,0],[1,0.5,0],[1,0.75,0]];outlineConnect=0;fontColor=#232F3E;gradientColor=#60A337;gradientDirection=north;fillColor=#277116;strokeColor=#ffffff;dashed=0;verticalLabelPosition=bottom;verticalAlign=top;align=center;html=1;fontSize=12;fontStyle=0;aspect=fixed;shape=mxgraph.aws4.resourceIcon;resIcon=mxgraph.aws4.efs_standard;" parent="1" vertex="1">
          <mxGeometry x="730" y="280" width="30" height="30" as="geometry" />
        </mxCell>
        <mxCell id="tsi3xn3XVuMqrHjlHtd9-23" value="" style="sketch=0;points=[[0,0,0],[0.25,0,0],[0.5,0,0],[0.75,0,0],[1,0,0],[0,1,0],[0.25,1,0],[0.5,1,0],[0.75,1,0],[1,1,0],[0,0.25,0],[0,0.5,0],[0,0.75,0],[1,0.25,0],[1,0.5,0],[1,0.75,0]];outlineConnect=0;fontColor=#232F3E;gradientColor=#FF4F8B;gradientDirection=north;fillColor=#BC1356;strokeColor=#ffffff;dashed=0;verticalLabelPosition=bottom;verticalAlign=top;align=center;html=1;fontSize=12;fontStyle=0;aspect=fixed;shape=mxgraph.aws4.resourceIcon;resIcon=mxgraph.aws4.api_gateway;" parent="1" vertex="1">
          <mxGeometry x="730" y="245" width="30" height="30" as="geometry" />
        </mxCell>
        <mxCell id="tsi3xn3XVuMqrHjlHtd9-35" value="&lt;div&gt;Allow if action&lt;/div&gt;&lt;div&gt;explicitly permitted &lt;br&gt;&lt;/div&gt;&lt;div&gt;and no deny &lt;br&gt;&lt;/div&gt;&lt;div&gt;rules exist&lt;br&gt;&lt;/div&gt;" style="text;html=1;align=center;verticalAlign=middle;resizable=0;points=[];autosize=1;strokeColor=none;fillColor=none;fontColor=#888888;" parent="1" vertex="1">
          <mxGeometry x="513.51" y="260" width="120" height="70" as="geometry" />
        </mxCell>
        <mxCell id="ngXMmz6KetWJr5_zTEk7-8" style="edgeStyle=orthogonalEdgeStyle;rounded=0;orthogonalLoop=1;jettySize=auto;html=1;sketch=1;curveFitting=1;jiggle=2;strokeColor=#888888;" edge="1" parent="1" source="ngXMmz6KetWJr5_zTEk7-3" target="tsi3xn3XVuMqrHjlHtd9-7">
          <mxGeometry relative="1" as="geometry" />
        </mxCell>
        <mxCell id="ngXMmz6KetWJr5_zTEk7-3" value="&lt;font color=&quot;#888888&quot;&gt;Verify that request&lt;br&gt;is signed with&lt;br&gt;valid credentials&lt;/font&gt;" style="outlineConnect=0;dashed=0;verticalLabelPosition=bottom;verticalAlign=top;align=left;html=1;shape=mxgraph.aws3.endpoints;fillColor=#F58534;gradientColor=none;labelPosition=right;" vertex="1" parent="1">
          <mxGeometry x="320" y="240" width="38.33" height="40" as="geometry" />
        </mxCell>
      </root>
    </mxGraphModel>
  </diagram>
</mxfile>
